<svg width="512" height="512" viewBox="0 0 512 512" fill="none" xmlns="http://www.w3.org/2000/svg">
  <!-- Background -->
  <rect width="512" height="512" rx="112" fill="#F7F3EC"/>
  
  <!-- Decorative frame -->
  <rect x="106" y="106" width="300" height="300" rx="20" fill="none" stroke="#B8935E" stroke-width="2.5" opacity="0.3"/>
  
  <!-- Top star/sparkle -->
  <circle cx="256" cy="160" r="10" fill="#B8935E"/>
  <line x1="256" y1="138" x2="256" y2="182" stroke="#B8935E" stroke-width="4" opacity="0.6"/>
  <line x1="234" y1="160" x2="278" y2="160" stroke="#B8935E" stroke-width="4" opacity="0.6"/>
  
  <!-- Center "D" monogram -->
  <g transform="translate(256, 256)">
    <!-- Letter D shape - larger -->
    <path d="M -48 -64 L -48 64 L 0 64 C 32 64 58 42 58 0 C 58 -42 32 -64 0 -64 Z M -26 -42 L 0 -42 C 21 -42 37 -26 37 0 C 37 26 21 42 0 42 L -26 42 Z" fill="#1C1814"/>
  </g>
  
  <!-- Bottom decorative dots -->
  <circle cx="202" cy="352" r="5" fill="#B8935E" opacity="0.4"/>
  <circle cx="256" cy="352" r="5" fill="#B8935E" opacity="0.6"/>
  <circle cx="310" cy="352" r="5" fill="#B8935E" opacity="0.4"/>
  
  <!-- Corner accent elements -->
  <circle cx="130" cy="130" r="3" fill="#B8935E" opacity="0.2"/>
  <circle cx="382" cy="130" r="3" fill="#B8935E" opacity="0.2"/>
  <circle cx="130" cy="382" r="3" fill="#B8935E" opacity="0.2"/>
  <circle cx="382" cy="382" r="3" fill="#B8935E" opacity="0.2"/>
</svg>
